<?xml version="1.0" encoding="UTF-8" standalone="no"?>
<!-- Created with Inkscape (http://www.inkscape.org/) -->

<svg
   version="1.1"
   id="svg2128"
   width="400"
   height="400"
   viewBox="0 0 400 400"
   sodipodi:docname="japan_white.svg"
   inkscape:version="1.2.2 (b0a84865, 2022-12-01)"
   xmlns:inkscape="http://www.inkscape.org/namespaces/inkscape"
   xmlns:sodipodi="http://sodipodi.sourceforge.net/DTD/sodipodi-0.dtd"
   xmlns="http://www.w3.org/2000/svg"
   xmlns:svg="http://www.w3.org/2000/svg">
  <defs
     id="defs2132">
    <clipPath
       clipPathUnits="userSpaceOnUse"
       id="clipPath2144">
      <path
         d="M 0,300 H 300 V 0 H 0 Z"
         id="path2142" />
    </clipPath>
  </defs>
  <sodipodi:namedview
     id="namedview2130"
     pagecolor="#ffffff"
     bordercolor="#000000"
     borderopacity="0.25"
     inkscape:showpageshadow="2"
     inkscape:pageopacity="0.0"
     inkscape:pagecheckerboard="0"
     inkscape:deskcolor="#d1d1d1"
     showgrid="false"
     inkscape:zoom="1.2298494"
     inkscape:cx="189.04754"
     inkscape:cy="182.94923"
     inkscape:window-width="1440"
     inkscape:window-height="744"
     inkscape:window-x="0"
     inkscape:window-y="25"
     inkscape:window-maximized="1"
     inkscape:current-layer="g2136">
    <inkscape:page
       x="0"
       y="0"
       id="page2134"
       width="400"
       height="400" />
  </sodipodi:namedview>
  <g
     id="g2136"
     inkscape:groupmode="layer"
     inkscape:label="Page 1"
     transform="matrix(1.3333333,0,0,-1.3333333,0,400)">
    <g
       id="g2138"
       style="fill:#ffffff;fill-opacity:1"
       transform="matrix(1.2477017,0,0,1.2477017,-37.155475,-37.155189)">
      <g
         id="g2140"
         clip-path="url(#clipPath2144)"
         style="fill:#ffffff;fill-opacity:1">
        <g
           id="g2146"
           transform="translate(207.9238,66.5859)"
           style="fill:#ffffff;fill-opacity:1">
          <path
             d="m 0,0 h 13.487 l 23.2,111.869 H -4.207 l -10.389,-50.1 c -0.313,-1.508 -1.641,-2.59 -3.182,-2.59 h -91.429 l -4.776,-23.034 h 49.48 c 0.977,0 1.903,-0.441 2.52,-1.199 0.617,-0.758 0.86,-1.754 0.662,-2.712 L -68.005,0 h 45.522 l 2.646,12.76 c 0.314,1.509 1.642,2.59 3.183,2.59 h 15.843 c 0.978,0 1.904,-0.441 2.521,-1.199 0.617,-0.758 0.86,-1.754 0.662,-2.712 z M 16.133,-6.5 H -3.993 c -0.978,0 -1.903,0.44 -2.521,1.198 -0.617,0.759 -0.86,1.754 -0.662,2.712 l 2.372,11.44 h -9.205 l -2.646,-12.76 c -0.314,-1.509 -1.642,-2.59 -3.183,-2.59 h -52.161 c -0.977,0 -1.903,0.44 -2.52,1.198 -0.617,0.759 -0.86,1.754 -0.662,2.712 l 6.684,32.235 h -49.48 c -0.977,0 -1.903,0.44 -2.52,1.198 -0.617,0.759 -0.86,1.754 -0.662,2.712 l 6.125,29.534 c 0.312,1.508 1.641,2.59 3.182,2.59 h 91.428 l 10.389,50.1 c 0.313,1.509 1.641,2.59 3.182,2.59 H 40.68 c 0.977,0 1.903,-0.439 2.52,-1.198 0.617,-0.758 0.861,-1.754 0.662,-2.712 L 19.315,-3.91 C 19.002,-5.418 17.674,-6.5 16.133,-6.5"
             style="fill:#ffffff;fill-opacity:1;fill-rule:nonzero;stroke:none"
             id="path2148" />
        </g>
        <g
           id="g2150"
           transform="translate(207.2207,195.353)"
           style="fill:#ffffff;fill-opacity:1">
          <path
             d="m 0,0 h 40.894 l 7.892,38.061 H 7.894 Z M 43.539,-6.5 H -3.993 c -0.978,0 -1.903,0.439 -2.521,1.198 -0.617,0.758 -0.86,1.754 -0.662,2.712 l 9.241,44.561 c 0.314,1.508 1.642,2.59 3.183,2.59 h 47.531 c 0.978,0 1.904,-0.44 2.521,-1.198 0.617,-0.759 0.86,-1.755 0.662,-2.712 L 46.722,-3.91 C 46.408,-5.419 45.08,-6.5 43.539,-6.5"
             style="fill:#ffffff;fill-opacity:1;fill-rule:nonzero;stroke:none"
             id="path2152" />
        </g>
        <g
           id="g2154"
           transform="translate(86.4453,66.5859)"
           style="fill:#ffffff;fill-opacity:1">
          <path
             d="m 0,0 h 34.144 l 3.477,16.771 H 3.478 Z M 36.789,-6.5 H -3.993 c -0.978,0 -1.903,0.44 -2.521,1.198 -0.617,0.759 -0.86,1.754 -0.661,2.712 l 4.825,23.272 c 0.313,1.507 1.642,2.589 3.183,2.589 h 40.781 c 0.978,0 1.904,-0.44 2.521,-1.198 0.617,-0.759 0.86,-1.754 0.661,-2.712 L 39.971,-3.91 C 39.658,-5.418 38.329,-6.5 36.789,-6.5"
             style="fill:#ffffff;fill-opacity:1;fill-rule:nonzero;stroke:none"
             id="path2156" />
        </g>
        <g
           id="g2158"
           transform="translate(43.9932,66.5859)"
           style="fill:#ffffff;fill-opacity:1">
          <path
             d="M 0,0 H 23.069 L 35.341,59.179 H 12.272 Z M 25.714,-6.5 H -3.993 c -0.978,0 -1.903,0.44 -2.521,1.198 -0.617,0.759 -0.86,1.754 -0.661,2.712 l 13.62,65.679 c 0.312,1.508 1.641,2.59 3.182,2.59 h 29.707 c 0.978,0 1.903,-0.441 2.52,-1.199 0.618,-0.758 0.861,-1.753 0.662,-2.711 L 28.896,-3.91 C 28.584,-5.418 27.255,-6.5 25.714,-6.5"
             style="fill:#ffffff;fill-opacity:1;fill-rule:nonzero;stroke:none"
             id="path2160" />
        </g>
      </g>
    </g>
  </g>
</svg>
