<?xml version="1.0" encoding="UTF-8" standalone="no"?>
<svg
   viewBox="0 -960 960 960"
   fill="#EF6C00"
   version="1.1"
   id="svg134"
   sodipodi:docname="livefetchericon_white.svg"
   inkscape:version="1.2.2 (b0a84865, 2022-12-01)"
   xmlns:inkscape="http://www.inkscape.org/namespaces/inkscape"
   xmlns:sodipodi="http://sodipodi.sourceforge.net/DTD/sodipodi-0.dtd"
   xmlns="http://www.w3.org/2000/svg"
   xmlns:svg="http://www.w3.org/2000/svg">
  <defs
     id="defs138">
    <inkscape:path-effect
       effect="powerclip"
       id="path-effect2006"
       is_visible="true"
       lpeversion="1"
       inverse="true"
       flatten="false"
       hide_clip="false"
       message="Use fill-rule evenodd on &lt;b&gt;fill and stroke&lt;/b&gt; dialog if no flatten result after convert clip to paths." />
    <clipPath
       clipPathUnits="userSpaceOnUse"
       id="clipPath2002">
      <path
         d="m 480,-465.79076 q -29.62276,0 -50.35872,-20.73592 -20.73596,-20.73596 -20.73596,-50.35876 V -679.0748 q 0,-29.62279 20.73596,-50.35874 20.73596,-20.73595 50.35872,-20.73595 29.6228,0 50.35876,20.73595 20.73596,20.73595 20.73596,50.35874 v 142.18936 q 0,29.6228 -20.73596,50.35876 Q 509.6228,-465.79076 480,-465.79076 Z m -23.6982,165.8876 v -72.87204 q -61.61543,-8.29436 -101.90242,-55.0984 -40.28699,-46.804 -40.28699,-109.01184 h 47.39646 q 0,49.17384 34.65866,83.83248 34.65865,34.65868 83.83249,34.65868 49.17384,0 83.83248,-34.65868 34.65868,-34.65864 34.65868,-83.83248 h 47.39644 q 0,62.20784 -40.28696,109.01184 -40.287,46.804 -101.9024,55.0984 v 72.87204 z"
         id="path2004"
         style="display:none;fill:#000000;fill-opacity:1;stroke-width:0.592456" />
      <path
         id="lpe_path-effect2006"
         style="fill:#000000;fill-opacity:1;stroke-width:0.592456"
         class="powerclip"
         d="M 155,-885 H 805 V -75 H 155 Z m 325,419.20924 q 29.6228,0 50.35876,-20.73592 20.73596,-20.73596 20.73596,-50.35876 V -679.0748 q 0,-29.62279 -20.73596,-50.35874 Q 509.6228,-750.16949 480,-750.16949 q -29.62276,0 -50.35872,20.73595 -20.73596,20.73595 -20.73596,50.35874 v 142.18936 q 0,29.6228 20.73596,50.35876 20.73596,20.73592 50.35872,20.73592 z m -23.6982,165.8876 h 47.39644 v -72.87204 q 61.6154,-8.2944 101.9024,-55.0984 40.28696,-46.804 40.28696,-109.01184 h -47.39644 q 0,49.17384 -34.65868,83.83248 -34.65864,34.65868 -83.83248,34.65868 -49.17384,0 -83.83249,-34.65868 -34.65866,-34.65864 -34.65866,-83.83248 h -47.39646 q 0,62.20784 40.28699,109.01184 40.28699,46.80404 101.90242,55.0984 z" />
    </clipPath>
  </defs>
  <sodipodi:namedview
     id="namedview136"
     pagecolor="#ffffff"
     bordercolor="#000000"
     borderopacity="0.25"
     inkscape:showpageshadow="2"
     inkscape:pageopacity="0.0"
     inkscape:pagecheckerboard="0"
     inkscape:deskcolor="#d1d1d1"
     showgrid="false"
     inkscape:zoom="14.052817"
     inkscape:cx="5.0167877"
     inkscape:cy="16.864946"
     inkscape:window-width="1440"
     inkscape:window-height="744"
     inkscape:window-x="0"
     inkscape:window-y="25"
     inkscape:window-maximized="1"
     inkscape:current-layer="svg134" />
  <g
     id="g1957"
     clip-path="url(#clipPath2002)"
     inkscape:path-effect="#path-effect2006"
     style="fill:#ffffff;fill-opacity:1">
    <path
       d="m 480,-480 q 33,0 56.5,-23.5 Q 560,-527 560,-560 560,-593 536.5,-616.5 513,-640 480,-640 q -33,0 -56.5,23.5 -23.5,23.5 -23.5,56.5 0,33 23.5,56.5 23.5,23.5 56.5,23.5 z m 0,400 Q 319,-217 239.5,-334.5 160,-452 160,-552 q 0,-150 96.5,-239 96.5,-89 223.5,-89 127,0 223.5,89 96.5,89 96.5,239 0,100 -79.5,217.5 Q 641,-217 480,-80 Z"
       id="path132"
       inkscape:original-d="M480-480q33 0 56.5-23.5T560-560q0-33-23.5-56.5T480-640q-33 0-56.5 23.5T400-560q0 33 23.5 56.5T480-480Zm0 400Q319-217 239.5-334.5T160-552q0-150 96.5-239T480-880q127 0 223.5 89T800-552q0 100-79.5 217.5T480-80Z"
       style="fill:#ffffff;fill-opacity:1" />
    <rect
       style="fill:#ffffff;fill-opacity:1;stroke-width:47.68;stroke-linecap:round;stroke-linejoin:round;stroke-miterlimit:2;paint-order:stroke fill markers;stop-color:#000000"
       id="rect1170"
       width="300.75354"
       height="291.30579"
       x="343.26843"
       y="-697.03748"
       d="m 343.26843,-697.03748 h 300.75354 v 291.30579 H 343.26843 Z" />
  </g>
</svg>
